<mxfile host="app.diagrams.net" agent="Mozilla/5.0 (Macintosh; Intel Mac OS X 10_15_7) AppleWebKit/537.36 (KHTML, like Gecko) Chrome/130.0.0.0 Safari/537.36" version="24.8.1">
  <diagram name="第 1 页" id="K4TN151S9PnE1QrTPOtM">
    <mxGraphModel dx="1051" dy="784" grid="1" gridSize="10" guides="1" tooltips="1" connect="1" arrows="1" fold="1" page="1" pageScale="1" pageWidth="827" pageHeight="1169" background="#fafafa" math="0" shadow="0">
      <root>
        <mxCell id="0" />
        <mxCell id="1" parent="0" />
        <mxCell id="9NeFglAirixaQk57ez88-1" value="开始" style="whiteSpace=wrap;strokeWidth=2;fontSize=16;" parent="1" vertex="1">
          <mxGeometry x="442" y="20" width="92" height="49" as="geometry" />
        </mxCell>
        <mxCell id="9NeFglAirixaQk57ez88-2" value="请求新闻列表" style="whiteSpace=wrap;strokeWidth=2;fontSize=16;" parent="1" vertex="1">
          <mxGeometry x="410" y="119" width="156" height="49" as="geometry" />
        </mxCell>
        <mxCell id="9NeFglAirixaQk57ez88-3" value="获取新闻数据" style="whiteSpace=wrap;strokeWidth=2;fontSize=16;" parent="1" vertex="1">
          <mxGeometry x="410" y="218" width="156" height="49" as="geometry" />
        </mxCell>
        <mxCell id="9NeFglAirixaQk57ez88-4" value="展示新闻列表" style="whiteSpace=wrap;strokeWidth=2;fontSize=16;" parent="1" vertex="1">
          <mxGeometry x="410" y="317" width="156" height="49" as="geometry" />
        </mxCell>
        <mxCell id="9NeFglAirixaQk57ez88-5" value="是否有更多新闻?" style="rhombus;strokeWidth=2;whiteSpace=wrap;fontSize=16;" parent="1" vertex="1">
          <mxGeometry x="20" y="416" width="167" height="167" as="geometry" />
        </mxCell>
        <mxCell id="9NeFglAirixaQk57ez88-6" value="显示“点击加载更多”" style="whiteSpace=wrap;strokeWidth=2;fontSize=16;" parent="1" vertex="1">
          <mxGeometry x="60" y="656" width="205" height="49" as="geometry" />
        </mxCell>
        <mxCell id="9NeFglAirixaQk57ez88-7" value="显示“没有更多内容了”" style="whiteSpace=wrap;strokeWidth=2;fontSize=16;" parent="1" vertex="1">
          <mxGeometry x="315" y="656" width="221" height="49" as="geometry" />
        </mxCell>
        <mxCell id="9NeFglAirixaQk57ez88-8" value="用户浏览新闻摘要" style="whiteSpace=wrap;strokeWidth=2;fontSize=16;" parent="1" vertex="1">
          <mxGeometry x="523" y="475" width="188" height="49" as="geometry" />
        </mxCell>
        <mxCell id="9NeFglAirixaQk57ez88-9" value="下滑加载之前新闻" style="whiteSpace=wrap;strokeWidth=2;fontSize=16;" parent="1" vertex="1">
          <mxGeometry x="588" y="656" width="188" height="49" as="geometry" />
        </mxCell>
        <mxCell id="9NeFglAirixaQk57ez88-10" value="上滑加载之后新闻" style="whiteSpace=wrap;strokeWidth=2;fontSize=16;" parent="1" vertex="1">
          <mxGeometry x="826" y="656" width="188" height="49" as="geometry" />
        </mxCell>
        <mxCell id="9NeFglAirixaQk57ez88-11" value="结束" style="whiteSpace=wrap;strokeWidth=2;fontSize=16;" parent="1" vertex="1">
          <mxGeometry x="311" y="475" width="92" height="49" as="geometry" />
        </mxCell>
        <mxCell id="9NeFglAirixaQk57ez88-12" value="" style="curved=1;startArrow=none;endArrow=block;exitX=0.5;exitY=1;entryX=0.5;entryY=0;rounded=0;fontSize=16;" parent="1" source="9NeFglAirixaQk57ez88-1" target="9NeFglAirixaQk57ez88-2" edge="1">
          <mxGeometry relative="1" as="geometry">
            <Array as="points" />
          </mxGeometry>
        </mxCell>
        <mxCell id="9NeFglAirixaQk57ez88-13" value="" style="curved=1;startArrow=none;endArrow=block;exitX=0.5;exitY=1;entryX=0.5;entryY=0;rounded=0;fontSize=16;" parent="1" source="9NeFglAirixaQk57ez88-2" target="9NeFglAirixaQk57ez88-3" edge="1">
          <mxGeometry relative="1" as="geometry">
            <Array as="points" />
          </mxGeometry>
        </mxCell>
        <mxCell id="9NeFglAirixaQk57ez88-14" value="" style="curved=1;startArrow=none;endArrow=block;exitX=0.5;exitY=1;entryX=0.5;entryY=0;rounded=0;fontSize=16;" parent="1" source="9NeFglAirixaQk57ez88-3" target="9NeFglAirixaQk57ez88-4" edge="1">
          <mxGeometry relative="1" as="geometry">
            <Array as="points" />
          </mxGeometry>
        </mxCell>
        <mxCell id="9NeFglAirixaQk57ez88-15" value="" style="curved=1;startArrow=none;endArrow=block;exitX=0;exitY=0.7;entryX=0.5;entryY=0;rounded=0;fontSize=16;" parent="1" source="9NeFglAirixaQk57ez88-4" target="9NeFglAirixaQk57ez88-5" edge="1">
          <mxGeometry relative="1" as="geometry">
            <Array as="points">
              <mxPoint x="103" y="391" />
            </Array>
          </mxGeometry>
        </mxCell>
        <mxCell id="9NeFglAirixaQk57ez88-16" value="是" style="curved=1;startArrow=none;endArrow=block;exitX=0.5;exitY=1;entryX=0.38;entryY=0;rounded=0;fontSize=16;" parent="1" source="9NeFglAirixaQk57ez88-5" target="9NeFglAirixaQk57ez88-6" edge="1">
          <mxGeometry relative="1" as="geometry">
            <Array as="points">
              <mxPoint x="103" y="619" />
            </Array>
          </mxGeometry>
        </mxCell>
        <mxCell id="9NeFglAirixaQk57ez88-17" value="否" style="curved=1;startArrow=none;endArrow=block;exitX=1;exitY=0.79;entryX=0.29;entryY=0;rounded=0;fontSize=16;" parent="1" source="9NeFglAirixaQk57ez88-5" target="9NeFglAirixaQk57ez88-7" edge="1">
          <mxGeometry relative="1" as="geometry">
            <Array as="points">
              <mxPoint x="309" y="619" />
            </Array>
          </mxGeometry>
        </mxCell>
        <mxCell id="9NeFglAirixaQk57ez88-18" value="" style="curved=1;startArrow=none;endArrow=block;exitX=0.91;exitY=1;entryX=0.5;entryY=0;rounded=0;fontSize=16;" parent="1" source="9NeFglAirixaQk57ez88-4" target="9NeFglAirixaQk57ez88-8" edge="1">
          <mxGeometry relative="1" as="geometry">
            <Array as="points">
              <mxPoint x="617" y="391" />
            </Array>
          </mxGeometry>
        </mxCell>
        <mxCell id="9NeFglAirixaQk57ez88-19" value="" style="curved=1;startArrow=none;endArrow=block;exitX=0.5;exitY=1;entryX=0.36;entryY=0;rounded=0;fontSize=16;" parent="1" source="9NeFglAirixaQk57ez88-8" target="9NeFglAirixaQk57ez88-9" edge="1">
          <mxGeometry relative="1" as="geometry">
            <Array as="points">
              <mxPoint x="617" y="619" />
            </Array>
          </mxGeometry>
        </mxCell>
        <mxCell id="9NeFglAirixaQk57ez88-20" value="" style="curved=1;startArrow=none;endArrow=block;exitX=0.71;exitY=1;entryX=0.27;entryY=0;rounded=0;fontSize=16;" parent="1" source="9NeFglAirixaQk57ez88-8" target="9NeFglAirixaQk57ez88-10" edge="1">
          <mxGeometry relative="1" as="geometry">
            <Array as="points">
              <mxPoint x="811" y="619" />
            </Array>
          </mxGeometry>
        </mxCell>
        <mxCell id="9NeFglAirixaQk57ez88-21" value="" style="curved=1;startArrow=none;endArrow=block;exitX=0.73;exitY=0;entryX=1;entryY=0.76;rounded=0;fontSize=16;" parent="1" source="9NeFglAirixaQk57ez88-9" target="9NeFglAirixaQk57ez88-4" edge="1">
          <mxGeometry relative="1" as="geometry">
            <Array as="points">
              <mxPoint x="791" y="619" />
              <mxPoint x="791" y="391" />
            </Array>
          </mxGeometry>
        </mxCell>
        <mxCell id="9NeFglAirixaQk57ez88-22" value="" style="curved=1;startArrow=none;endArrow=block;exitX=0.52;exitY=0;entryX=1;entryY=0.68;rounded=0;fontSize=16;" parent="1" source="9NeFglAirixaQk57ez88-10" target="9NeFglAirixaQk57ez88-4" edge="1">
          <mxGeometry relative="1" as="geometry">
            <Array as="points">
              <mxPoint x="930" y="619" />
              <mxPoint x="930" y="391" />
            </Array>
          </mxGeometry>
        </mxCell>
        <mxCell id="9NeFglAirixaQk57ez88-23" value="" style="curved=1;startArrow=none;endArrow=block;exitX=0.72;exitY=0;entryX=0;entryY=0.87;rounded=0;fontSize=16;" parent="1" source="9NeFglAirixaQk57ez88-6" target="9NeFglAirixaQk57ez88-4" edge="1">
          <mxGeometry relative="1" as="geometry">
            <Array as="points">
              <mxPoint x="276" y="619" />
              <mxPoint x="276" y="391" />
            </Array>
          </mxGeometry>
        </mxCell>
        <mxCell id="9NeFglAirixaQk57ez88-24" value="" style="curved=1;startArrow=none;endArrow=block;exitX=0.61;exitY=0;entryX=0.5;entryY=1;rounded=0;fontSize=16;" parent="1" source="9NeFglAirixaQk57ez88-7" target="9NeFglAirixaQk57ez88-4" edge="1">
          <mxGeometry relative="1" as="geometry">
            <Array as="points">
              <mxPoint x="488" y="619" />
            </Array>
          </mxGeometry>
        </mxCell>
        <mxCell id="9NeFglAirixaQk57ez88-25" value="" style="curved=1;startArrow=none;endArrow=block;exitX=0.08;exitY=1;entryX=0.5;entryY=0;rounded=0;fontSize=16;" parent="1" source="9NeFglAirixaQk57ez88-4" target="9NeFglAirixaQk57ez88-11" edge="1">
          <mxGeometry relative="1" as="geometry">
            <Array as="points">
              <mxPoint x="357" y="391" />
            </Array>
          </mxGeometry>
        </mxCell>
      </root>
    </mxGraphModel>
  </diagram>
</mxfile>
